<svg width="155" height="30">
    <defs>
        <linearGradient id="gradient-265040501" x1="0" x2="0" y1="1" y2="0">
            <stop offset="10%" stop-color="#9be9a8"></stop>
            <stop offset="33%" stop-color="#40c463"></stop>
            <stop offset="66%" stop-color="#30a14e"></stop>
            <stop offset="90%" stop-color="#216e39"></stop>
        </linearGradient>

        <mask id="sparkline-265040501" x="0" y="0" width="155" height="28">
            <polyline
                points="0,1.0 3,1.0 6,1.0 9,1.0 12,1.0 15,1.0 18,1.0 21,1.0 24,1.0 27,1.0 30,1.0 33,1.0 36,1.0 39,1.76 42,1.0 45,29.0 48,5.54 51,1.0 54,1.0 57,3.27 60,1.0 63,1.0 66,1.0 69,1.0 72,1.0 75,1.0 78,1.0 81,1.0 84,1.0 87,1.0 90,1.0 93,1.0 96,1.0 99,1.0 102,1.0 105,1.0 108,1.0 111,1.0 114,1.0 117,1.0 120,1.0 123,1.0 126,1.0 129,1.0 132,1.0 135,1.0 138,1.0 141,1.0 144,1.0 147,4.779999999999999 150,1.0 153,1.76 "
                fill="transparent" stroke="#8cc665" stroke-width="2">

            </polyline>
        </mask>
    </defs>

    <g transform="translate(0, 2.0)">
        <rect x="0" y="-2" height="30"
            style="stroke: none; fill: url(#gradient-265040501); mask: url(#sparkline-265040501)">

        </rect>
    </g>
</svg>